# xmcd
#
# Track frame offsets:
#	150
#	12879
#	24723
#	37116
#	48825
#	62316
#	74569
#	87401
#	101779
#	116987
#	129003
#	143504
#	156058
#	168682
#	181781
#	194780
#	206653
#	219138
#	229544
#	242244
#	256098
#	269662
#	282707
#	294020
#	304385
#	319363
#	331786
#	343376
#
# Disc length: 4734 seconds
#
# Revision: 1
# Processed by: cddbd v1.5.2PL0 Copyright (c) Steve Scherf et al.
# Submitted via: audiograbber 1.83.01
#
DISCID=aa127c1c
DTITLE=Ray Charles - I Got A Woman (The Great Singers)
DYEAR=1900
DGENRE=Soul
TTITLE0=I got a woman
TTITLE1=The sun's gonna shine again
TTITLE2=Jumpin' in the morning
TTITLE3=Rollin' with my baby
TTITLE4=The midnight hour
TTITLE5=It shoulda been me
TTITLE6=Heartbreaker
TTITLE7=Losing hand
TTITLE8=Sinner's prayer
TTITLE9=Mess around
TTITLE10=Funny but I still love you
TTITLE11=I wonder who
TTITLE12=Feelin' sad
TTITLE13=Don't you know
TTITLE14=Ray's blues
TTITLE15=Nobody cares
TTITLE16=Mr Charles' blues
TTITLE17=Blackjack
TTITLE18=Greenbacks
TTITLE19=Come back, baby
TTITLE20=A fool for you
TTITLE21=Hard times
TTITLE22=This little girl of mine
TTITLE23=A bit of soul
TTITLE24=Drown in my own tears
TTITLE25=Mary Ann
TTITLE26=Halleluyah, I love her so
TTITLE27=What would I do without you
EXTD=
EXTT0=
EXTT1=
EXTT2=
EXTT3=
EXTT4=
EXTT5=
EXTT6=
EXTT7=
EXTT8=
EXTT9=
EXTT10=
EXTT11=
EXTT12=
EXTT13=
EXTT14=
EXTT15=
EXTT16=
EXTT17=
EXTT18=
EXTT19=
EXTT20=
EXTT21=
EXTT22=
EXTT23=
EXTT24=
EXTT25=
EXTT26=
EXTT27=
PLAYORDER=
